<svg version="1" xmlns="http://www.w3.org/2000/svg" width="1365.333" height="1365.333" viewBox="0 0 1024.000000 1024.000000"><path d="M43.6 138.5c-23 41-41.7 74.7-41.5 74.9.4.3 558.2 2.7 632.7 2.6 23.2 0 42.2.4 42.2.9 0 .4-35.3 60.1-78.5 132.5L520 481.1l41.6 74.7c22.9 41.1 41.9 75 42.3 75.4.3.3 73.2-126.3 161.9-281.4C854.5 194.7 926.9 67.5 926.6 67.2c-.3-.2-106-.8-234.8-1.3-128.9-.4-318-1-420.3-1.4l-186-.6-41.9 74.6z"/><path d="M769.4 365.5C678.1 524.2 603.2 654 602.9 654c-.3 0-34.6-58.9-76.3-131l-75.8-131H276.9l2.5 4.2c1.4 2.4 74.7 127.9 162.8 279 118 202.2 160.6 274.3 161.4 273.5 1.8-1.9 419.7-727 419.7-728.2 0-1.4-86.6-143.4-87.4-143.5-.4 0-75.3 129.8-166.5 288.5z"/><path d="M77.8 365.8c42.7 74.6 136.9 239.1 209.2 365.5L418.4 961h173.7l-3-5.3c-1.6-2.8-77.9-134.1-169.5-291.7L253.1 377.5l155.6-.5 155.6-.5 41.9-72c23.1-39.6 42.2-72.6 42.5-73.3.4-.9-64.8-1.2-324-1.2H.1l77.7 135.8z"/></svg>